<?xml version="1.0" encoding="UTF-8" standalone="yes"?>
<svg version="1.1" width="64" height="64" color-interpolation="linearRGB"
     xmlns:svg="http://www.w3.org/2000/svg" xmlns="http://www.w3.org/2000/svg">
 <g>
  <path style="fill:#010101; fill-opacity:0.4235"
        d="M19 20C11.81 20 6 22.21 6 25C6 27.76 11.81 30 19 30C26.17 30 32 27.76 32 25C32 22.21 26.17 20 19 20V20V20V20V20z"
  />
  <path style="fill:none; stroke:#000000; stroke-width:3.4"
        d="M32 42C32 42 18 42 18 38C18 30 34 28 34 22C34 18 26 18 26 18
           M14 2C7.36 2 2 7.36 2 14C2 20.62 7.36 26 14 26C20.62 26 26 20.62 26 14C26 7.36 20.62 2 14 2V2V2V2V2z"
  />
  <radialGradient id="gradient0" gradientUnits="userSpaceOnUse" cx="0" cy="0" r="64" gradientTransform="matrix(-0.2291,0,0,-0.2291,10.3326,10.3326)">
   <stop offset="0" stop-color="#29b6ff"/>
   <stop offset="1" stop-color="#035492"/>
  </radialGradient>
  <path style="fill:url(#gradient0)"
        d="M13.99 2.99C10.75 2.99 7.82 4.39 5.81 6.62C5.81 6.62 8.49 6.66 8.49 8.49C8.49 10.33 4.83 13.99 4.83 13.99C4.83 14.6 4.83 15.21 4.83 15.83C4.83 15.83 6.66 15.83 8.49 17.66C10.33 19.49 8.49 21.33 8.49 21.33C9.18 22.36 9.88 23.41 10.58 24.44C11.65 24.8 12.79 24.99 13.99 24.99C16.73 24.99 19.24 23.98 21.16 22.31C20.6 21.98 20.05 21.66 19.49 21.33C20.1 20.1 20.71 18.88 21.33 17.66C21.33 17.66 15.83 15.83 15.83 13.99C15.83 12.16 19.49 8.49 19.49 8.49C18.88 7.88 18.27 7.27 17.66 6.66C17.01 7.27 16.35 7.88 15.7 8.49C15.13 8.49 14.56 8.49 13.99 8.49C14.6 7.88 15.21 7.27 15.83 6.66C15.21 6.05 14.6 5.43 13.99 4.83C15.03 4.36 16.07 3.89 17.09 3.43C16.1 3.15 15.07 2.99 13.99 2.99V2.99V2.99V2.99V2.99z"
  />
  <radialGradient id="gradient1" gradientUnits="userSpaceOnUse" cx="0" cy="0" r="64" gradientTransform="matrix(-0.2291,0,0,-0.2291,10.3326,10.3326)">
   <stop offset="0" stop-color="#9ff699"/>
   <stop offset="1" stop-color="#049a43"/>
  </radialGradient>
  <path style="fill:url(#gradient1)"
        d="M5.81 6.62C4.06 8.58 2.99 11.15 2.99 13.99C2.99 18.86 6.17 23.01 10.58 24.44C9.88 23.41 9.18 22.36 8.49 21.33C8.49 21.33 10.33 19.49 8.49 17.66C6.66 15.83 4.83 15.83 4.83 15.83C4.83 15.21 4.83 14.6 4.83 13.99C4.83 13.99 8.49 10.33 8.49 8.49C8.49 6.66 5.81 6.62 5.81 6.62V6.62V6.62V6.62V6.62z
           M13.99 8.49C14.71 8.49 15.44 8.49 16.17 8.49C16.66 7.88 17.16 7.27 17.66 6.66C18.27 7.27 18.88 7.88 19.49 8.49C19.49 8.49 15.83 12.16 15.83 13.99C15.83 15.83 21.33 17.66 21.33 17.66C20.71 18.88 20.1 20.1 19.49 21.33C20.05 21.66 20.6 21.98 21.16 22.31C23.5 20.29 24.99 17.31 24.99 13.99C24.99 9 21.66 4.78 17.09 3.43C16.07 3.89 15.03 4.36 13.99 4.83C14.6 5.43 15.21 6.05 15.83 6.66C15.21 7.27 14.6 7.88 13.99 8.49V8.49V8.49V8.49V8.49z"
  />
  <path style="fill:#010000; fill-opacity:0.4549"
        d="M46.99 60.99C49.12 60.99 51.25 60.99 53.38 60.99C54.33 59.87 55.28 58.74 56.22 57.63C57.19 57.56 58.16 57.5 59.13 57.44C58.7 57.05 58.27 56.65 57.85 56.26C58.7 55.08 59.55 53.9 60.41 52.72C58.91 52.13 57.42 51.54 55.93 50.95C47.63 50.95 39.33 50.95 31.02 50.95C31.02 51.93 31.02 52.91 31.02 53.9C31.87 53.9 32.72 53.9 33.58 53.9C35.7 54.88 37.83 55.87 39.96 56.85C42.3 58.23 44.65 59.61 46.99 60.99V60.99V60.99V60.99V60.99z"
        transform="matrix(1.3062,0,0,1,-14.5028,3)"
  />
  <path style="fill:none; stroke:#000000; stroke-width:5.5322"
        d="M36.13 29.1C32.51 31.06 28.89 33.03 25.27 35C25.27 35.59 25.27 36.18 25.27 36.77C25.69 36.97 26.12 37.16 26.55 37.36C26.55 42.28 26.55 47.2 26.55 52.13C27.4 52.52 28.25 52.91 29.11 53.31C29.53 52.72 29.95 52.13 30.38 51.54C33.58 52.91 36.77 54.29 39.96 55.67C40.6 56.85 41.24 58.03 41.88 59.22C43.16 59.81 44.44 60.4 45.71 60.99C48.69 58.23 51.67 55.47 54.66 52.72C54.66 47.99 54.66 43.27 54.66 38.55C55.08 38.15 55.51 37.75 55.93 37.36C55.93 36.77 55.93 36.18 55.93 35.59C49.33 33.42 42.73 31.26 36.13 29.1V29.1V29.1V29.1V29.1z"
  />
  <linearGradient id="gradient2" gradientUnits="userSpaceOnUse" x1="78.82" y1="2.63" x2="93.06" y2="19.34">
   <stop offset="0" stop-color="#f1c347"/>
   <stop offset="1" stop-color="#d29a05"/>
  </linearGradient>
  <path style="fill:url(#gradient2)"
        d="M45.71 43.27C38.9 40.51 32.08 37.75 25.27 35C25.27 35.59 25.27 36.18 25.27 36.77C25.69 36.97 26.12 37.16 26.55 37.36C26.55 42.28 26.55 47.2 26.55 52.13C27.4 52.52 28.25 52.91 29.11 53.31C29.53 52.72 29.95 52.13 30.38 51.54C33.58 52.91 36.77 54.29 39.96 55.67C40.6 56.85 41.24 58.03 41.88 59.22C43.16 59.81 44.44 60.4 45.71 60.99C45.71 55.08 45.71 49.18 45.71 43.27V43.27V43.27V43.27V43.27z"
  />
  <linearGradient id="gradient3" gradientUnits="userSpaceOnUse" x1="27.53" y1="-20.9" x2="49.6" y2="-20.59">
   <stop offset="0" stop-color="#fff0c7"/>
   <stop offset="1" stop-color="#ffd35b"/>
  </linearGradient>
  <path style="fill:url(#gradient3)"
        d="M25.27 35C28.89 33.03 32.51 31.06 36.13 29.1C42.73 31.26 49.33 33.42 55.93 35.59C52.52 38.15 49.12 40.71 45.71 43.27C38.9 40.51 32.08 37.75 25.27 35V35V35V35V35z"
  />
  <linearGradient id="gradient4" gradientUnits="userSpaceOnUse" x1="50.77" y1="14.9" x2="65.77" y2="18.35">
   <stop offset="0" stop-color="#896402"/>
   <stop offset="1" stop-color="#bf8c00"/>
  </linearGradient>
  <path style="fill:url(#gradient4)"
        d="M45.71 43.27C45.71 49.18 45.71 55.08 45.71 60.99C48.69 58.23 51.67 55.47 54.66 52.72C54.66 47.99 54.66 43.27 54.66 38.55C55.08 38.15 55.51 37.75 55.93 37.36C55.93 36.77 55.93 36.18 55.93 35.59C52.52 38.15 49.12 40.71 45.71 43.27V43.27V43.27V43.27V43.27z"
  />
  <linearGradient id="gradient5" gradientUnits="userSpaceOnUse" x1="31.02" y1="-11.05" x2="39.96" y2="-11.05">
   <stop offset="0.0821" stop-color="#c7ba91"/>
   <stop offset="0.0821" stop-color="#9b8e60"/>
   <stop offset="0.2233" stop-color="#9b8e60"/>
   <stop offset="0.2274" stop-color="#c7ba91"/>
   <stop offset="0.3567" stop-color="#c7ba91"/>
   <stop offset="0.3567" stop-color="#9b8e60"/>
   <stop offset="0.4941" stop-color="#9b8e60"/>
   <stop offset="0.4941" stop-color="#c7ba91"/>
   <stop offset="0.6352" stop-color="#c7ba91"/>
   <stop offset="0.6352" stop-color="#9b8e60"/>
   <stop offset="0.7764" stop-color="#9b8e60"/>
   <stop offset="0.7764" stop-color="#c7ba91"/>
   <stop offset="0.9175" stop-color="#c7ba91"/>
   <stop offset="0.9215" stop-color="#9b8e60"/>
  </linearGradient>
  <path style="fill:url(#gradient5)"
        d="M41.24 53.31C41.24 52.52 41.24 51.73 41.24 50.95C41.24 50.36 41.24 48.59 39.33 47.99C37.41 47.4 38.69 45.04 35.49 43.86C32.3 42.68 32.94 45.63 31.66 45.04C30.38 44.45 29.74 45.63 29.74 46.22C29.74 47.01 29.74 47.79 29.74 48.59C33.58 50.16 37.41 51.73 41.24 53.31V53.31V53.31V53.31V53.31z"
  />
  <linearGradient id="gradient6" gradientUnits="userSpaceOnUse" x1="81.03" y1="3.7" x2="91.71" y2="17.58">
   <stop offset="0" stop-color="#ff0606"/>
   <stop offset="1" stop-color="#c60505"/>
  </linearGradient>
  <path style="fill:none; stroke:url(#gradient6); stroke-width:1.2294"
        d="M41.24 53.31C41.24 52.52 41.24 51.73 41.24 50.95C41.24 50.36 41.24 48.59 39.33 47.99C37.41 47.4 38.69 45.04 35.49 43.86C32.3 42.68 32.94 45.63 31.66 45.04C30.38 44.45 29.74 45.63 29.74 46.22C29.74 47.01 29.74 47.79 29.74 48.59C33.58 50.16 37.41 51.73 41.24 53.31V53.31V53.31V53.31V53.31z"
  />
  <path style="fill:none; stroke:#000000; stroke-width:3.6881; stroke-linecap:round; stroke-linejoin:round"
        d="M52.74 47.99C52.74 49.57 52.74 51.14 52.74 52.72"
  />
  <path style="fill:none; stroke:#000000; stroke-width:3.6881; stroke-linecap:round; stroke-linejoin:round"
        d="M51.46 47.4C51.88 47.6 52.31 47.79 52.74 47.99"
  />
  <radialGradient id="gradient7" gradientUnits="userSpaceOnUse" cx="0" cy="0" r="64" gradientTransform="matrix(-0.0099,0,0,-0.0461,52.7458,50.3619)">
   <stop offset="0" stop-color="#ccdae5"/>
   <stop offset="1" stop-color="#5b6b75"/>
  </radialGradient>
  <path style="fill:none; stroke:url(#gradient7); stroke-width:1.2294; stroke-linecap:round; stroke-linejoin:round"
        d="M52.74 47.99C52.74 49.57 52.74 51.14 52.74 52.72"
  />
  <radialGradient id="gradient8" gradientUnits="userSpaceOnUse" cx="0" cy="0" r="64" gradientTransform="matrix(-0.0282,-0.0208,0.0123,-0.0143,51.7884,47.2436)">
   <stop offset="0" stop-color="#f8fcff"/>
   <stop offset="1" stop-color="#849199"/>
  </radialGradient>
  <path style="fill:none; stroke:url(#gradient8); stroke-width:1.2294; stroke-linecap:round; stroke-linejoin:round"
        d="M51.46 47.4C51.88 47.6 52.31 47.79 52.74 47.99"
  />
  <path style="fill:none; stroke:#000000; stroke-width:5.5322; stroke-linecap:round; stroke-linejoin:round"
        d="M55.3 53.9C57 54.69 58.7 55.47 60.41 56.26"
  />
  <radialGradient id="gradient9" gradientUnits="userSpaceOnUse" cx="0" cy="0" r="64" gradientTransform="matrix(-0.064,-0.0367,0.0159,-0.0237,57.3986,54.3787)">
   <stop offset="0" stop-color="#ffdcac"/>
   <stop offset="1" stop-color="#784803"/>
  </radialGradient>
  <path style="fill:none; stroke:url(#gradient9); stroke-width:2.4588; stroke-linecap:round; stroke-linejoin:round"
        d="M55.3 53.9C57 54.69 58.7 55.47 60.41 56.26"
  />
  <path style="fill:none; stroke:#010000; stroke-opacity:0.5254; stroke-width:1.2294"
        d="M26.55 37.95C32.94 40.71 39.33 43.46 45.71 46.22C48.91 43.86 52.1 41.5 55.3 39.14"
  />
 </g>
</svg>
